<?xml version="1.0" encoding="utf-8"?>
<!-- Generator: Adobe Illustrator 28.3.0, SVG Export Plug-In . SVG Version: 6.00 Build 0)  -->
<svg version="1.1" id="Layer_1" xmlns="http://www.w3.org/2000/svg" xmlns:xlink="http://www.w3.org/1999/xlink" x="0px" y="0px"
	 viewBox="0 0 24 24" style="enable-background:new 0 0 24 24;" xml:space="preserve">
<style type="text/css">
	.st0{fill:#FFFFFF;}
</style>
<path class="st0" d="M12.8,1.6c-0.2,0-0.5,0-0.8,0c-0.3,0-0.5,0-0.8,0c-5,0.5-7.7,6.1-5.3,10.5l5.3,9.8c0.2,0.4,0.8,0.6,1.2,0.4
	c0.2-0.1,0.3-0.2,0.4-0.4l5.3-9.8C20.4,7.7,17.7,2.1,12.8,1.6z M12,11c-1.4,0-2.5-1.1-2.5-2.5S10.6,6,12,6s2.5,1.1,2.5,2.5
	S13.4,11,12,11z"/>
</svg>
