<?xml version="1.0" encoding="utf-8"?>
<!-- Generator: Adobe Illustrator 28.3.0, SVG Export Plug-In . SVG Version: 6.00 Build 0)  -->
<svg version="1.1" id="Layer_1" xmlns="http://www.w3.org/2000/svg" xmlns:xlink="http://www.w3.org/1999/xlink" x="0px" y="0px"
	 viewBox="0 0 24 24" style="enable-background:new 0 0 24 24;" xml:space="preserve">
<style type="text/css">
	.st0{fill-rule:evenodd;clip-rule:evenodd;fill:#FFFFFF;}
</style>
<path class="st0" d="M11.5,13.1c0.4,0.4,1,0.4,1.4,0l7.9-7.9C20.6,5.1,20.3,5,20,5H4C3.8,5,3.6,5,3.5,5.1L11.5,13.1z"/>
<path class="st0" d="M14.3,14.5c-1.2,1.2-3.1,1.2-4.2,0l-8-8C2,6.7,2,6.8,2,7v10c0,1.1,0.9,2,2,2h16c1.1,0,2-0.9,2-2V7
	c0,0,0-0.1,0-0.1L14.3,14.5z"/>
</svg>
