<?xml version="1.0" encoding="utf-8"?>
<!-- Generator: Adobe Illustrator 28.3.0, SVG Export Plug-In . SVG Version: 6.00 Build 0)  -->
<svg version="1.1" id="Layer_1" xmlns="http://www.w3.org/2000/svg" xmlns:xlink="http://www.w3.org/1999/xlink" x="0px" y="0px"
	 viewBox="0 0 24 24" style="enable-background:new 0 0 24 24;" xml:space="preserve">
<style type="text/css">
	.st0{fill:#FFFFFF;}
</style>
<path class="st0" d="M3.8,17.4l2.4,2.4c0.8,0.8,2,0.8,2.8,0c0,0,0,0,0,0l1.4-1.4c0.8-0.8,0.8-2,0-2.8l-0.9-0.9l0,0
	c1.4-2.3,3.3-4.3,5.6-5.7l0,0L16,9.9c0.8,0.8,2,0.8,2.8,0l1.3-1.3c0.8-0.8,0.8-2,0-2.8l-2.4-2.4c-0.3-0.3-0.9-0.4-1.3-0.1l0,0
	C11.4,6.7,7,11,3.6,16.2l0,0C3.4,16.5,3.4,17.1,3.8,17.4z"/>
</svg>
